<svg xmlns="http://www.w3.org/2000/svg" width="20" height="20" viewBox="0 0 20 20" fill="none">
  <path d="M17.8287 9.12312H17.3937L17.2644 8.68437H18.4544C18.6201 8.68437 18.7791 8.61853 18.8963 8.50132C19.0135 8.38411 19.0794 8.22514 19.0794 8.05937C19.0794 7.89361 19.0135 7.73464 18.8963 7.61743C18.7791 7.50022 18.6201 7.43438 18.4544 7.43438H16.8956L16.2006 5.08C15.9212 4.32188 15.0687 3.75 14.2187 3.75H5.91C5.06 3.75 4.20812 4.32187 3.91562 5.11937L3.23312 7.43438H1.875C1.70924 7.43438 1.55027 7.50022 1.43306 7.61743C1.31585 7.73464 1.25 7.89361 1.25 8.05937C1.25 8.22514 1.31585 8.38411 1.43306 8.50132C1.55027 8.61853 1.70924 8.68437 1.875 8.68437H2.86375L2.73437 9.12312H2.5C1.81062 9.12312 1.25 9.68375 1.25 10.3731V15.8994H2.24812V16.5794C2.24812 16.6615 2.26429 16.7427 2.2957 16.8186C2.32711 16.8944 2.37315 16.9633 2.43118 17.0213C2.48922 17.0794 2.55812 17.1254 2.63395 17.1568C2.70978 17.1882 2.79105 17.2044 2.87312 17.2044C2.9552 17.2044 3.03647 17.1882 3.1123 17.1568C3.18813 17.1254 3.25703 17.0794 3.31507 17.0213C3.3731 16.9633 3.41914 16.8944 3.45055 16.8186C3.48196 16.7427 3.49812 16.6615 3.49812 16.5794V15.8994H16.985V16.5794C16.985 16.7451 17.0508 16.9041 17.1681 17.0213C17.2853 17.1385 17.4442 17.2044 17.61 17.2044C17.7758 17.2044 17.9347 17.1385 18.0519 17.0213C18.1691 16.9041 18.235 16.7451 18.235 16.5794V15.8994H19.0794V10.3731C19.0787 10.0417 18.9467 9.72405 18.7123 9.48975C18.4779 9.25546 18.1602 9.12362 17.8287 9.12312ZM2.5 14.6487V12.5988H3.94125C4.45812 12.5988 4.92812 12.2731 5.11062 11.79L5.58062 10.5456C5.60187 10.4887 5.60437 10.4306 5.60875 10.3731H14.4081C14.4125 10.4306 14.415 10.4887 14.4362 10.5456L14.9062 11.7887C14.9963 12.0262 15.1563 12.2308 15.3651 12.3754C15.5739 12.5201 15.8216 12.5979 16.0756 12.5988H17.8287V14.6487H2.5ZM17.8287 11.3487L16.0756 11.3481L15.7075 10.3725H17.8287V11.3487ZM4.26812 8.33875C4.29644 8.27984 4.31502 8.21673 4.32312 8.15187L5.10125 5.5125C5.18875 5.275 5.56062 5 5.91 5H14.2187C14.5681 5 14.94 5.275 15.0144 5.4725L16.0906 9.1225H4.0375L4.26812 8.33875ZM4.31 10.3731L3.94125 11.3494H2.5V10.3731H4.31Z" fill="#5C5E66" stroke="#5C5E66" stroke-width="0.2"/>
  <path d="M12.0069 12.2313H8.32251C8.15675 12.2313 7.99778 12.2971 7.88057 12.4143C7.76336 12.5315 7.69751 12.6905 7.69751 12.8563C7.69751 13.022 7.76336 13.181 7.88057 13.2982C7.99778 13.4154 8.15675 13.4813 8.32251 13.4813H12.0069C12.1726 13.4813 12.3316 13.4154 12.4488 13.2982C12.566 13.181 12.6319 13.022 12.6319 12.8563C12.6319 12.6905 12.566 12.5315 12.4488 12.4143C12.3316 12.2971 12.1726 12.2313 12.0069 12.2313Z" fill="#5C5E66"/>
</svg>
