<svg xmlns="http://www.w3.org/2000/svg" width="14" height="14" viewBox="0 0 14 14" fill="none">
  <path d="M2.19613 3.70416C2.19613 2.87149 2.87146 2.19616 3.70346 2.19616H4.38946C4.7868 2.19616 5.1688 2.03882 5.45146 1.75816L5.9308 1.27816C6.51813 0.688156 7.4728 0.685489 8.0628 1.27282L8.0688 1.27816L8.5488 1.75816C8.8308 2.03882 9.2128 2.19616 9.6108 2.19616H10.2961C11.1288 2.19616 11.8041 2.87149 11.8041 3.70416V4.38882C11.8041 4.78749 11.9615 5.16882 12.2421 5.45149L12.7221 5.93149C13.3121 6.51882 13.3155 7.47282 12.7281 8.06349L12.7221 8.06949L12.2421 8.54949C11.9615 8.83082 11.8041 9.21349 11.8041 9.61082V10.2968C11.8041 11.1295 11.1288 11.8042 10.2961 11.8042H9.6108C9.2128 11.8042 8.8308 11.9622 8.5488 12.2428L8.0688 12.7222C7.48213 13.3128 6.52746 13.3155 5.9368 12.7282C5.9348 12.7262 5.9328 12.7242 5.9308 12.7222L5.45146 12.2428C5.1688 11.9622 4.7868 11.8042 4.38946 11.8042H3.70346C2.87146 11.8042 2.19613 11.1295 2.19613 10.2968V9.61082C2.19613 9.21349 2.03813 8.83082 1.75746 8.54949L1.27813 8.06949C0.687463 7.48216 0.684797 6.52749 1.27213 5.93749L1.27813 5.93149L1.75746 5.45149C2.03813 5.16882 2.19613 4.78749 2.19613 4.38882V3.70416" stroke="#8D9099" stroke-linecap="round" stroke-linejoin="round"/>
  <path d="M5.28662 8.7131L8.71329 5.28644" stroke="#8D9099" stroke-linecap="round" stroke-linejoin="round"/>
  <path d="M8.71089 9.2152C8.57763 9.2152 8.45104 9.16186 8.35776 9.06853C8.31112 9.02186 8.27781 8.96186 8.25116 8.90186C8.22451 8.84186 8.21118 8.78253 8.21118 8.7152C8.21118 8.64853 8.22451 8.58186 8.25116 8.52186C8.27781 8.46186 8.31112 8.40853 8.35776 8.36186C8.54432 8.1752 8.87745 8.1752 9.06401 8.36186C9.11065 8.40853 9.15063 8.46186 9.17728 8.52186C9.19726 8.58186 9.21059 8.64853 9.21059 8.7152C9.21059 8.78253 9.19726 8.84186 9.17728 8.90186C9.15063 8.96186 9.11065 9.02186 9.06401 9.06853C8.97073 9.16186 8.84414 9.2152 8.71089 9.2152Z" fill="#8D9099"/>
  <path d="M5.28413 5.78882C5.2175 5.78882 5.15754 5.77482 5.09757 5.74815C5.03761 5.72148 4.97764 5.68882 4.931 5.64215C4.88436 5.58882 4.85105 5.53548 4.8244 5.47548C4.79775 5.41482 4.78442 5.35548 4.78442 5.28882C4.78442 5.22148 4.79775 5.15548 4.8244 5.09548C4.85105 5.03548 4.88436 4.97548 4.931 4.93548C5.12422 4.74815 5.4507 4.74815 5.63725 4.93548C5.73053 5.02815 5.78383 5.15548 5.78383 5.28882C5.78383 5.35548 5.77717 5.41482 5.75052 5.47548C5.72387 5.53548 5.68389 5.58882 5.63725 5.64215C5.59061 5.68882 5.53731 5.72148 5.47735 5.74815C5.41738 5.77482 5.35076 5.78882 5.28413 5.78882Z" fill="#8D9099"/>
</svg>
