<svg xmlns="http://www.w3.org/2000/svg" width="16" height="16" viewBox="0 0 16 16" fill="none">
  <g clip-path="url(#clip0_402_7207)">
    <path fill-rule="evenodd" clip-rule="evenodd" d="M8.7433 0.817397C8.2986 0.502111 7.70326 0.502111 7.25857 0.817396L6.65307 1.24669C6.40267 1.42421 6.09695 1.50613 5.79134 1.47759L5.05232 1.40856C4.50956 1.35786 3.99398 1.65553 3.7665 2.15093L3.45677 2.82545C3.32868 3.10439 3.10488 3.3282 2.82594 3.45628L2.15141 3.76601C1.65602 3.99349 1.35835 4.50907 1.40905 5.05183L1.47807 5.79085C1.50662 6.09646 1.4247 6.40219 1.24717 6.65258L0.817885 7.25808C0.5026 7.70278 0.5026 8.29811 0.817885 8.74281L1.24717 9.34831C1.4247 9.5987 1.50662 9.90443 1.47807 10.21L1.40905 10.9491C1.35835 11.4918 1.65602 12.0074 2.15141 12.2349L2.82594 12.5446C3.10488 12.6727 3.32868 12.8965 3.45677 13.1754L3.7665 13.85C3.99398 14.3454 4.50956 14.643 5.05232 14.5923L5.79134 14.5233C6.09695 14.4948 6.40268 14.5767 6.65307 14.7542L7.25857 15.1835C7.70326 15.4988 8.2986 15.4988 8.7433 15.1835L9.34879 14.7542C9.59919 14.5767 9.90492 14.4948 10.2105 14.5233L10.9495 14.5923C11.4923 14.643 12.0079 14.3454 12.2354 13.85L12.5451 13.1754C12.6732 12.8965 12.897 12.6727 13.1759 12.5446L13.8505 12.2349C14.3458 12.0074 14.6435 11.4918 14.5928 10.9491L14.5238 10.21C14.4952 9.90443 14.5772 9.5987 14.7547 9.34831L15.184 8.74281C15.4993 8.29811 15.4993 7.70278 15.184 7.25808L14.7547 6.65258C14.5772 6.40219 14.4952 6.09646 14.5238 5.79085L14.5928 5.05183C14.6435 4.50907 14.3458 3.99349 13.8505 3.76601L13.1759 3.45628C12.897 3.3282 12.6732 3.10439 12.5451 2.82545L12.2354 2.15093C12.0079 1.65553 11.4923 1.35786 10.9495 1.40856L10.2105 1.47759C9.90492 1.50613 9.59919 1.42421 9.34879 1.24669L8.7433 0.817397ZM5.37379 10.6267C5.58098 10.8339 5.91686 10.8341 6.12421 10.627L10.6261 6.13227C10.8339 5.92484 10.8349 5.5885 10.6285 5.37976C10.4206 5.16951 10.0812 5.16857 9.87214 5.37768L5.37379 9.87602C5.16649 10.0833 5.16649 10.4194 5.37379 10.6267ZM8.9965 10.9268C9.22441 11.0602 9.47594 11.1269 9.75109 11.1269C10.0262 11.1269 10.2778 11.0602 10.5057 10.9268C10.7336 10.7906 10.9142 10.6099 11.0476 10.3848C11.1838 10.1569 11.2519 9.90396 11.2519 9.62603C11.2519 9.34809 11.1838 9.09657 11.0476 8.87144C10.9142 8.64353 10.7336 8.46288 10.5057 8.32947C10.2778 8.19328 10.0262 8.12519 9.75109 8.12519C9.48427 8.12519 9.23691 8.19328 9.00901 8.32947C8.7811 8.46566 8.59767 8.6477 8.4587 8.87561C8.31974 9.10351 8.25025 9.35365 8.25025 9.62603C8.25025 9.90396 8.31835 10.1569 8.45453 10.3848C8.59072 10.6099 8.77138 10.7906 8.9965 10.9268ZM10.0179 10.093C9.93731 10.143 9.84837 10.168 9.75109 10.168C9.65381 10.168 9.56349 10.143 9.48011 10.093C9.39951 10.0429 9.33419 9.97761 9.28416 9.89701C9.23413 9.81363 9.20912 9.7233 9.20912 9.62603C9.20912 9.52875 9.23413 9.43981 9.28416 9.35921C9.33419 9.27583 9.39951 9.20913 9.48011 9.1591C9.56349 9.10907 9.65381 9.08406 9.75109 9.08406C9.84837 9.08406 9.93731 9.10907 10.0179 9.1591C10.1013 9.20913 10.168 9.27583 10.218 9.35921C10.268 9.43981 10.2931 9.52875 10.2931 9.62603C10.2931 9.7233 10.268 9.81363 10.218 9.89701C10.168 9.97761 10.1013 10.0429 10.0179 10.093ZM5.49454 7.67494C5.72245 7.80834 5.97398 7.87505 6.24913 7.87505C6.52429 7.87505 6.77443 7.80834 6.99955 7.67494C7.22746 7.53875 7.4095 7.35809 7.54569 7.13297C7.68188 6.90506 7.74997 6.65214 7.74997 6.37421C7.74997 6.09628 7.68188 5.84475 7.54569 5.61962C7.4095 5.39172 7.22746 5.21106 6.99955 5.07765C6.77443 4.94146 6.52429 4.87337 6.24913 4.87337C5.98232 4.87337 5.73496 4.94146 5.50705 5.07765C5.27915 5.21384 5.09571 5.39588 4.95674 5.62379C4.81778 5.8517 4.74829 6.10184 4.74829 6.37421C4.74829 6.65214 4.815 6.90506 4.94841 7.13297C5.08459 7.35809 5.26664 7.53875 5.49454 7.67494ZM6.51595 6.84114C6.43535 6.89117 6.34641 6.91618 6.24913 6.91618C6.15186 6.91618 6.06153 6.89117 5.97815 6.84114C5.89755 6.79111 5.83223 6.7258 5.78221 6.64519C5.73218 6.56181 5.70716 6.47149 5.70716 6.37421C5.70716 6.27693 5.73218 6.18799 5.78221 6.10739C5.83223 6.02401 5.89755 5.95731 5.97815 5.90728C6.06153 5.85725 6.15186 5.83224 6.24913 5.83224C6.34641 5.83224 6.43535 5.85725 6.51595 5.90728C6.59933 5.95731 6.66603 6.02401 6.71606 6.10739C6.76609 6.18799 6.7911 6.27693 6.7911 6.37421C6.7911 6.47149 6.76609 6.56181 6.71606 6.64519C6.66603 6.7258 6.59933 6.79111 6.51595 6.84114Z" fill="#2B2D33"/>
  </g>
  <defs>
    <clipPath id="clip0_402_7207">
      <rect width="16" height="16" fill="white"/>
    </clipPath>
  </defs>
</svg>
