<svg xmlns="http://www.w3.org/2000/svg" width="20" height="20" viewBox="0 0 20 20" fill="none">
  <g clip-path="url(#clip0_450_13128)">
    <path d="M0.61498 5.08355C0.665037 4.9467 0.765718 4.83429 0.896246 4.76951C1.02677 4.70474 1.17719 4.69254 1.31645 4.73544C1.45571 4.77834 1.57319 4.87306 1.64464 5.00005C1.71609 5.12705 1.73607 5.27663 1.70044 5.41792L1.6686 5.52074C1.6595 5.55349 1.64812 5.5999 1.63584 5.65813C1.4889 6.35872 1.58443 7.14302 2.10487 7.88774C2.18267 7.99919 2.27001 8.10883 2.36646 8.21529C2.41652 8.27073 2.45517 8.33548 2.48021 8.40586C2.50525 8.47624 2.51618 8.55086 2.51238 8.62547C2.50857 8.70007 2.49012 8.77319 2.45805 8.84066C2.42599 8.90813 2.38095 8.96863 2.32551 9.01869C2.27007 9.06875 2.20531 9.10741 2.13494 9.13244C2.06456 9.15748 1.98993 9.16841 1.91533 9.16461C1.84073 9.16081 1.7676 9.14235 1.70014 9.11029C1.63267 9.07822 1.57217 9.03319 1.52211 8.97775C1.39669 8.83909 1.28 8.69277 1.17272 8.53965C0.450296 7.50605 0.316547 6.40785 0.523085 5.4252C0.55493 5.27144 0.589049 5.15589 0.615435 5.08355H0.61498ZM6.07549 1.21529C6.18812 1.13186 6.32758 1.09297 6.46712 1.10607C6.60667 1.11916 6.73646 1.18333 6.83159 1.28626L6.87071 1.33403L10.1207 5.72682C10.2065 5.84376 10.2444 5.98907 10.2267 6.13303C10.2089 6.27698 10.1367 6.4087 10.025 6.50123C9.91333 6.59376 9.77048 6.6401 9.62573 6.63077C9.48098 6.62145 9.34526 6.55716 9.24635 6.45107L9.20677 6.4033L5.95676 2.01051C5.86708 1.8893 5.82922 1.73744 5.85148 1.58831C5.87375 1.43919 5.95432 1.30502 6.07549 1.21529ZM13.217 8.56103C13.3534 8.76347 13.5127 8.94636 13.6919 9.11059C13.9094 9.30984 14.1432 9.4718 14.3766 9.59781L14.4835 9.65332C14.5485 9.68562 14.6004 9.70836 14.635 9.72201L14.6577 9.73111L14.2797 10.8034C13.923 10.6774 13.4226 10.4071 12.9231 9.94902C12.719 9.76225 12.5337 9.55594 12.3699 9.33305L12.273 9.19611L13.217 8.56103Z" fill="#5C5E66" stroke="#5C5E66" stroke-width="0.4" stroke-linejoin="round"/>
    <path d="M12.6875 4.07954C13.05 3.96751 13.4284 3.91602 13.8076 3.92714L13.9859 3.93624C14.914 3.96945 15.6541 4.19737 16.2182 4.5645C16.4484 4.71462 16.6258 4.8693 16.7573 5.01488L16.7732 5.03353L19.1489 5.20913C19.2243 5.21468 19.2978 5.23519 19.3652 5.26948C19.4325 5.30377 19.4924 5.35115 19.5412 5.40884C19.59 5.46653 19.6269 5.53338 19.6496 5.60548C19.6723 5.67758 19.6804 5.75348 19.6734 5.82875L19.6643 5.88789L19.3786 7.36777C19.3227 7.65301 19.274 7.89094 19.2512 7.98238C19.112 8.54831 18.9346 8.85084 18.5552 9.12334C18.487 9.17248 18.4128 9.2207 18.3214 9.27574C17.9993 9.46954 17.4829 9.63559 16.7928 9.798C16.5187 9.86193 16.2432 9.92018 15.9667 9.9727L15.5795 10.0437L15.5659 10.1155C15.515 10.3768 15.4604 10.6374 15.4021 10.8971L15.3439 11.1482C15.2165 11.685 15.0909 12.1113 14.9635 12.4052C14.924 12.4966 14.883 12.5776 14.8389 12.6495C14.6142 13.0144 14.3012 13.3697 13.9218 13.7163C13.727 13.8942 13.5228 14.0625 13.3167 14.219L13.0401 14.421L13.0119 14.4401L13.1393 17.933C13.1197 18.5836 12.8959 19.0208 12.4646 19.1886L12.3909 19.2141C12.2731 19.2496 12.1785 19.2596 12.0634 19.2578L11.9455 19.2528C11.8605 19.2528 11.7622 19.2401 11.6371 19.2164L11.4092 19.1686L11.1066 19.0958L11.0552 19.0827C10.9616 19.0583 10.8757 19.0103 10.8057 18.9435C10.7357 18.8766 10.684 18.793 10.6554 18.7005L10.6413 18.6432L10.0075 15.4455L9.95204 15.4701C8.61455 16.0237 7.08417 15.7653 5.9987 14.9396L5.90408 14.865C5.74576 14.7367 5.48372 14.6093 5.15254 14.4965C4.95727 14.4311 4.759 14.3751 4.5584 14.3286L4.50654 14.3173L3.68175 17.9067C3.61715 18.181 3.54345 18.3962 3.45429 18.5663L3.41471 18.6364C3.20862 18.9798 2.95295 19.1045 2.63268 19.1136H2.54306C2.20427 19.1172 1.87068 19.0301 1.57679 18.8616C1.40392 18.7615 1.28109 18.6537 1.20466 18.564C1.13191 18.4787 1.08601 18.3738 1.07273 18.2624L1.06909 18.1955V10.9308C1.06909 9.93858 1.20785 9.26437 1.47034 8.83947C1.69416 8.47689 1.99669 8.31311 2.2701 8.31311C2.32015 8.31311 2.37019 8.31994 2.41932 8.33313C4.41919 8.87495 7.19972 8.82172 9.97888 8.44914C10.0529 8.43922 10.1281 8.44398 10.2003 8.46314C10.2725 8.48231 10.3402 8.5155 10.3996 8.56083C10.4589 8.60616 10.5088 8.66273 10.5462 8.72732C10.5837 8.79191 10.6081 8.86326 10.6181 8.93728C10.628 9.0113 10.6232 9.08655 10.604 9.15873C10.5849 9.23091 10.5517 9.29861 10.5064 9.35796C10.461 9.41731 10.4045 9.46716 10.3399 9.50465C10.2753 9.54214 10.2039 9.56653 10.1299 9.57645C7.40444 9.94176 4.69579 10.0145 2.56854 9.54051L2.40294 9.50184L2.39248 9.52368C2.29058 9.75296 2.21688 10.1651 2.20732 10.7929L2.20641 10.9308V17.908L2.26101 17.9308C2.32151 17.9522 2.3893 17.9672 2.46481 17.9731H2.47619L2.48574 17.9503C2.51325 17.8759 2.53663 17.7999 2.5558 17.7229L2.574 17.6492L3.52116 13.5275C3.55313 13.3887 3.63603 13.2669 3.75346 13.1863C3.8709 13.1057 4.01431 13.0721 4.15533 13.0921L4.3646 13.1267C4.4292 13.1385 4.50335 13.1531 4.58478 13.1699C4.90096 13.2354 5.21805 13.3182 5.51739 13.4201C5.96549 13.5716 6.33899 13.7532 6.62059 13.982C7.55229 14.7376 9.00533 14.8864 10.0776 14.1039C10.151 14.0504 10.2361 14.0152 10.3258 14.0014C10.4156 13.9875 10.5073 13.9953 10.5934 14.0242C10.6795 14.0531 10.7575 14.1021 10.8207 14.1673C10.884 14.2324 10.9307 14.3118 10.957 14.3987L10.9706 14.4528L11.6862 18.065L11.8573 18.1005L11.9442 18.115L11.9824 18.1159L11.9883 18.0836L11.9947 18.039L12.0029 17.9362L11.8641 14.1649C11.8605 14.0646 11.8834 13.9652 11.9306 13.8766C11.9779 13.7881 12.0477 13.7136 12.133 13.6608L12.2808 13.5635C12.587 13.3543 12.8788 13.1248 13.1543 12.8765C13.4623 12.5954 13.7084 12.316 13.8699 12.054C13.8785 12.0403 13.889 12.0203 13.9008 11.9949L13.9199 11.953C14.0136 11.736 14.1242 11.3607 14.2375 10.8844C14.2934 10.6501 14.3476 10.4021 14.399 10.1506L14.449 9.89809C14.4886 9.6961 14.5173 9.53915 14.5323 9.45089C14.5527 9.33338 14.6095 9.22525 14.6947 9.14181C14.78 9.05838 14.8893 9.00385 15.0072 8.98595L15.1355 8.96548C15.6038 8.88825 16.0695 8.79661 16.5321 8.69071C17.1099 8.55514 17.5466 8.41456 17.735 8.30129L17.8232 8.24669C17.8492 8.22986 17.8714 8.21485 17.8915 8.20029C18.0157 8.11067 18.0602 8.04516 18.128 7.78631L18.1471 7.71033C18.1599 7.65938 18.1835 7.54747 18.2126 7.40098L18.4278 6.29641L16.4307 6.14902C16.3472 6.14278 16.2661 6.11819 16.1932 6.07698C16.1203 6.03577 16.0574 5.97897 16.009 5.91063L15.9748 5.85695C15.9758 5.85786 15.958 5.83284 15.9193 5.78871C15.8248 5.6844 15.7166 5.59335 15.5977 5.51803C15.2611 5.29875 14.8111 5.14499 14.1997 5.08903L14.0996 5.08084L14.151 5.23916C14.338 5.83057 14.4608 6.42061 14.4886 6.98427C14.5496 8.2285 14.136 9.21387 13.1011 9.70793C13.0657 9.7249 13.0286 9.73816 12.9905 9.74751L12.9141 9.76388C12.879 9.77038 12.8438 9.77614 12.8085 9.78117C12.4952 9.83061 12.1754 9.82042 11.8659 9.75114C10.3851 9.40176 10.1067 7.84636 11.3937 5.14726C11.6507 4.60772 12.1102 4.26288 12.6875 4.07954ZM12.9341 5.19821L12.8627 5.22778C12.6534 5.32332 12.5056 5.45707 12.42 5.63631C11.401 7.77402 11.532 8.50373 12.1275 8.6443C12.2535 8.67433 12.3977 8.67979 12.5392 8.66796L12.6443 8.65568L12.6689 8.65158L12.6843 8.64385C13.1607 8.38044 13.3713 7.88412 13.3563 7.15168L13.3526 7.04022C13.3303 6.58666 13.2266 6.0876 13.0665 5.58217C13.035 5.48282 13.0017 5.38408 12.9664 5.28601L12.9341 5.19821Z" fill="#5C5E66" stroke="#5C5E66" stroke-width="0.4" stroke-linejoin="round"/>
  </g>
  <defs>
    <clipPath id="clip0_450_13128">
      <rect width="20" height="20" fill="white"/>
    </clipPath>
  </defs>
</svg>
