<svg xmlns="http://www.w3.org/2000/svg" width="20" height="20" viewBox="0 0 20 20" fill="none">
  <path d="M18.4981 9.99314C18.4981 5.30352 14.6934 1.50183 9.99999 1.50183C5.30652 1.50183 1.50171 5.30352 1.50171 9.99314C1.50171 14.3252 4.74825 17.8993 8.94281 18.4194C9.17927 18.4692 9.46728 18.4982 9.8103 18.4982C9.9066 18.4982 9.99946 18.4932 10.0891 18.484C14.7415 18.4362 18.4981 14.6532 18.4981 9.99314ZM17.283 10.1133C17.2585 9.68961 17.2025 9.2749 17.1173 8.87186C17.1249 8.72795 17.1269 8.59161 17.1231 8.46485C17.2285 8.95765 17.284 9.46891 17.284 9.99314C17.2841 10.0333 17.2836 10.0733 17.283 10.1133ZM2.71576 9.99314C2.71576 9.47847 2.76935 8.97632 2.87104 8.49183C3.18561 8.82824 3.92703 8.8203 4.10785 8.31766C4.43138 8.51046 4.86614 8.54557 4.86614 8.93094C4.86614 10.2028 4.91144 11.5663 6.06711 11.5874C6.09965 11.5878 6.71161 11.8193 7.00285 12.5746C7.10355 12.8356 7.50187 12.5746 7.93868 12.5746C8.15674 12.5746 7.93868 12.9419 7.93868 13.7363C7.93868 14.5276 9.64478 15.746 9.64478 15.746C9.63688 16.2698 9.65838 16.6933 9.70197 17.0317C9.31687 17.0246 8.99232 17.0756 8.73735 17.1624C5.31622 16.565 2.71576 13.5827 2.71576 9.99314ZM11.7932 17.0492C11.7555 16.8643 11.5903 16.7631 11.2888 16.8423C11.5293 15.8181 11.6463 15.2444 12.1483 14.8089C12.8748 14.1792 12.2348 13.479 11.6821 13.5615C11.2464 13.6273 11.5217 13.0221 11.1328 12.9886C10.7439 12.956 10.2361 12.1826 9.6764 11.9164C9.37972 11.7755 9.08816 11.398 8.63061 11.3811C8.22506 11.3654 7.6324 11.724 7.6324 11.4475C7.6324 10.5571 7.54224 9.92177 7.52371 9.66804C7.50875 9.46418 7.39045 9.59937 7.93867 9.61255C8.23704 9.62054 8.0913 9.01329 8.38662 8.98957C8.67666 8.96663 9.36782 9.26108 9.54391 9.14372C9.70749 9.03444 10.7464 11.8706 10.7464 9.61253C10.7464 9.3446 10.6076 8.87877 10.7464 8.62501C11.2952 7.62228 11.809 6.80506 11.7629 6.68551C11.7367 6.6182 11.2014 6.56263 10.7731 6.70633C10.6285 6.7546 10.819 6.98098 10.6114 7.02933C9.8336 7.20889 9.14635 6.81961 9.38702 6.4537C9.63345 6.0787 10.5264 6.29012 10.6046 5.53782C10.6497 5.10691 10.687 4.60784 10.712 4.23692C11.7588 4.40062 11.6436 2.87838 10.087 2.71544C13.2361 2.75228 15.9046 4.78589 16.8838 7.60824C16.8343 7.56307 16.7767 7.53561 16.7102 7.52891C16.2395 6.35344 15.0972 7.20413 15.4847 8.24093C13.4084 9.83689 13.9399 10.95 14.6221 11.5874C14.981 11.9225 15.3232 12.4264 15.5461 12.7883C15.3035 13.4954 16.4397 13.2123 17 12.0122C16.2873 14.4839 14.299 16.4153 11.7932 17.0492Z" fill="#2B2D33"/>
</svg>
