<svg width="153" height="20" viewBox="0 0 153 20" fill="none" xmlns="http://www.w3.org/2000/svg">
  <rect y="3" width="2" height="14" rx="1" fill="#546B83"/>
  <path d="M10.98 15V4.92H12.226V9.365H17.532V4.92H18.778V15H17.532V10.548H12.226V15H10.98ZM23.9617 15.21C23.2104 15.21 22.5617 15.0397 22.0157 14.699C21.4744 14.3583 21.0567 13.887 20.7627 13.285C20.4687 12.683 20.3217 11.9923 20.3217 11.213C20.3217 10.4197 20.4711 9.72433 20.7697 9.127C21.0684 8.52967 21.4907 8.06533 22.0367 7.734C22.5827 7.398 23.2244 7.23 23.9617 7.23C24.7177 7.23 25.3687 7.40033 25.9147 7.741C26.4607 8.077 26.8784 8.546 27.1677 9.148C27.4617 9.74533 27.6087 10.4337 27.6087 11.213C27.6087 12.0017 27.4617 12.697 27.1677 13.299C26.8737 13.8963 26.4537 14.3653 25.9077 14.706C25.3617 15.042 24.7131 15.21 23.9617 15.21ZM23.9617 14.027C24.7457 14.027 25.3291 13.7657 25.7117 13.243C26.0944 12.7203 26.2857 12.0437 26.2857 11.213C26.2857 10.359 26.0921 9.68 25.7047 9.176C25.3174 8.66733 24.7364 8.413 23.9617 8.413C23.4344 8.413 23.0004 8.532 22.6597 8.77C22.3191 9.008 22.0647 9.337 21.8967 9.757C21.7287 10.177 21.6447 10.6623 21.6447 11.213C21.6447 12.0623 21.8407 12.7437 22.2327 13.257C22.6247 13.7703 23.2011 14.027 23.9617 14.027ZM30.4865 15L28.1765 7.433L29.4155 7.44L31.1025 12.97L32.8035 7.44H33.9025L35.5965 12.97L37.2905 7.44H38.5225L36.2125 15H35.1765L33.3495 9.253L31.5225 15H30.4865ZM46.8104 15C46.3624 15.0887 45.919 15.1237 45.4804 15.105C45.0464 15.091 44.659 15.0047 44.3184 14.846C43.9777 14.6827 43.7187 14.4307 43.5414 14.09C43.392 13.7913 43.3104 13.4903 43.2964 13.187C43.287 12.879 43.2824 12.5313 43.2824 12.144V5.34H44.5284V12.088C44.5284 12.396 44.5307 12.6597 44.5354 12.879C44.5447 13.0983 44.5937 13.2873 44.6824 13.446C44.8504 13.7447 45.1164 13.9197 45.4804 13.971C45.849 14.0223 46.2924 14.0083 46.8104 13.929V15ZM41.7494 8.469V7.44H46.8104V8.469H41.7494ZM51.2508 15.21C50.4994 15.21 49.8508 15.0397 49.3048 14.699C48.7634 14.3583 48.3458 13.887 48.0518 13.285C47.7578 12.683 47.6108 11.9923 47.6108 11.213C47.6108 10.4197 47.7601 9.72433 48.0588 9.127C48.3574 8.52967 48.7798 8.06533 49.3258 7.734C49.8718 7.398 50.5134 7.23 51.2508 7.23C52.0068 7.23 52.6578 7.40033 53.2038 7.741C53.7498 8.077 54.1674 8.546 54.4568 9.148C54.7508 9.74533 54.8978 10.4337 54.8978 11.213C54.8978 12.0017 54.7508 12.697 54.4568 13.299C54.1628 13.8963 53.7428 14.3653 53.1968 14.706C52.6508 15.042 52.0021 15.21 51.2508 15.21ZM51.2508 14.027C52.0348 14.027 52.6181 13.7657 53.0008 13.243C53.3834 12.7203 53.5748 12.0437 53.5748 11.213C53.5748 10.359 53.3811 9.68 52.9938 9.176C52.6064 8.66733 52.0254 8.413 51.2508 8.413C50.7234 8.413 50.2894 8.532 49.9488 8.77C49.6081 9.008 49.3538 9.337 49.1858 9.757C49.0178 10.177 48.9338 10.6623 48.9338 11.213C48.9338 12.0623 49.1298 12.7437 49.5218 13.257C49.9138 13.7703 50.4901 14.027 51.2508 14.027ZM61.3907 15.21C60.8261 15.21 60.3524 15.1073 59.9697 14.902C59.5917 14.692 59.3047 14.4167 59.1087 14.076C58.9174 13.7353 58.8217 13.362 58.8217 12.956C58.8217 12.5593 58.8964 12.2163 59.0457 11.927C59.1997 11.633 59.4144 11.3903 59.6897 11.199C59.9651 11.003 60.2941 10.849 60.6767 10.737C61.0361 10.639 61.4374 10.555 61.8807 10.485C62.3287 10.4103 62.7814 10.3427 63.2387 10.282C63.6961 10.2213 64.1231 10.163 64.5197 10.107L64.0717 10.366C64.0857 9.694 63.9504 9.197 63.6657 8.875C63.3857 8.553 62.9004 8.392 62.2097 8.392C61.7524 8.392 61.3511 8.497 61.0057 8.707C60.6651 8.91233 60.4247 9.24833 60.2847 9.715L59.1017 9.358C59.2837 8.69533 59.6361 8.175 60.1587 7.797C60.6814 7.419 61.3697 7.23 62.2237 7.23C62.9097 7.23 63.4977 7.35367 63.9877 7.601C64.4824 7.84367 64.8371 8.21233 65.0517 8.707C65.1591 8.94033 65.2267 9.19467 65.2547 9.47C65.2827 9.74067 65.2967 10.0253 65.2967 10.324V15H64.1907V13.187L64.4497 13.355C64.1651 13.9663 63.7661 14.4283 63.2527 14.741C62.7441 15.0537 62.1234 15.21 61.3907 15.21ZM61.5797 14.167C62.0277 14.167 62.4151 14.0877 62.7417 13.929C63.0731 13.7657 63.3391 13.5533 63.5397 13.292C63.7404 13.026 63.8711 12.7367 63.9317 12.424C64.0017 12.1907 64.0391 11.9317 64.0437 11.647C64.0531 11.3577 64.0577 11.136 64.0577 10.982L64.4917 11.171C64.0857 11.227 63.6867 11.2807 63.2947 11.332C62.9027 11.3833 62.5317 11.4393 62.1817 11.5C61.8317 11.556 61.5167 11.6237 61.2367 11.703C61.0314 11.7683 60.8377 11.8523 60.6557 11.955C60.4784 12.0577 60.3337 12.1907 60.2217 12.354C60.1144 12.5127 60.0607 12.711 60.0607 12.949C60.0607 13.1543 60.1121 13.3503 60.2147 13.537C60.3221 13.7237 60.4854 13.8753 60.7047 13.992C60.9287 14.1087 61.2204 14.167 61.5797 14.167ZM68.8873 15L66.1433 7.44H67.4033L69.5243 13.411L71.6383 7.44H72.9053L70.1613 15H68.8873ZM77.118 15.21C76.3666 15.21 75.718 15.0397 75.172 14.699C74.6306 14.3583 74.213 13.887 73.919 13.285C73.625 12.683 73.478 11.9923 73.478 11.213C73.478 10.4197 73.6273 9.72433 73.926 9.127C74.2246 8.52967 74.647 8.06533 75.193 7.734C75.739 7.398 76.3806 7.23 77.118 7.23C77.874 7.23 78.525 7.40033 79.071 7.741C79.617 8.077 80.0346 8.546 80.324 9.148C80.618 9.74533 80.765 10.4337 80.765 11.213C80.765 12.0017 80.618 12.697 80.324 13.299C80.03 13.8963 79.61 14.3653 79.064 14.706C78.518 15.042 77.8693 15.21 77.118 15.21ZM77.118 14.027C77.902 14.027 78.4853 13.7657 78.868 13.243C79.2506 12.7203 79.442 12.0437 79.442 11.213C79.442 10.359 79.2483 9.68 78.861 9.176C78.4736 8.66733 77.8926 8.413 77.118 8.413C76.5906 8.413 76.1566 8.532 75.816 8.77C75.4753 9.008 75.221 9.337 75.053 9.757C74.885 10.177 74.801 10.6623 74.801 11.213C74.801 12.0623 74.997 12.7437 75.389 13.257C75.781 13.7703 76.3573 14.027 77.118 14.027ZM82.4462 6.103V4.815H83.6922V6.103H82.4462ZM82.4462 15V7.44H83.6922V15H82.4462ZM88.7605 15.21C88.0558 15.21 87.4515 15.035 86.9475 14.685C86.4435 14.3303 86.0538 13.852 85.7785 13.25C85.5078 12.648 85.3725 11.969 85.3725 11.213C85.3725 10.457 85.5078 9.778 85.7785 9.176C86.0538 8.574 86.4435 8.10033 86.9475 7.755C87.4515 7.405 88.0535 7.23 88.7535 7.23C89.4675 7.23 90.0672 7.40267 90.5525 7.748C91.0378 8.09333 91.4042 8.567 91.6515 9.169C91.9035 9.771 92.0295 10.4523 92.0295 11.213C92.0295 11.9643 91.9035 12.6433 91.6515 13.25C91.4042 13.852 91.0378 14.3303 90.5525 14.685C90.0672 15.035 89.4698 15.21 88.7605 15.21ZM88.9145 14.069C89.4232 14.069 89.8408 13.9477 90.1675 13.705C90.4942 13.4577 90.7345 13.1193 90.8885 12.69C91.0472 12.256 91.1265 11.7637 91.1265 11.213C91.1265 10.653 91.0472 10.1607 90.8885 9.736C90.7345 9.30667 90.4965 8.973 90.1745 8.735C89.8525 8.49233 89.4442 8.371 88.9495 8.371C88.4362 8.371 88.0115 8.497 87.6755 8.749C87.3442 9.001 87.0968 9.34167 86.9335 9.771C86.7748 10.2003 86.6955 10.681 86.6955 11.213C86.6955 11.7497 86.7772 12.235 86.9405 12.669C87.1038 13.0983 87.3488 13.439 87.6755 13.691C88.0068 13.943 88.4198 14.069 88.9145 14.069ZM91.1265 15V9.435H90.9865V4.92H92.2395V15H91.1265ZM97.0034 15V4.92H100.986C101.084 4.92 101.201 4.92467 101.336 4.934C101.472 4.93867 101.602 4.95267 101.728 4.976C102.274 5.06 102.732 5.24667 103.1 5.536C103.474 5.82533 103.754 6.19167 103.94 6.635C104.127 7.07367 104.22 7.56133 104.22 8.098C104.22 8.63 104.125 9.11767 103.933 9.561C103.747 9.99967 103.467 10.366 103.093 10.66C102.725 10.9493 102.27 11.136 101.728 11.22C101.602 11.2387 101.472 11.2527 101.336 11.262C101.201 11.2713 101.084 11.276 100.986 11.276H98.2494V15H97.0034ZM98.2494 10.093H100.944C101.033 10.093 101.133 10.0883 101.245 10.079C101.362 10.0697 101.472 10.0533 101.574 10.03C101.896 9.95533 102.158 9.82 102.358 9.624C102.564 9.42333 102.713 9.19 102.806 8.924C102.9 8.65333 102.946 8.378 102.946 8.098C102.946 7.818 102.9 7.545 102.806 7.279C102.713 7.00833 102.564 6.77267 102.358 6.572C102.158 6.37133 101.896 6.236 101.574 6.166C101.472 6.138 101.362 6.12167 101.245 6.117C101.133 6.10767 101.033 6.103 100.944 6.103H98.2494V10.093ZM108.824 15.21C108.082 15.21 107.434 15.0467 106.878 14.72C106.328 14.3887 105.898 13.929 105.59 13.341C105.282 12.7483 105.128 12.0577 105.128 11.269C105.128 10.443 105.28 9.729 105.583 9.127C105.887 8.52033 106.309 8.05367 106.85 7.727C107.396 7.39567 108.036 7.23 108.768 7.23C109.529 7.23 110.175 7.405 110.707 7.755C111.244 8.105 111.645 8.60433 111.911 9.253C112.182 9.90167 112.299 10.674 112.261 11.57H111.001V11.122C110.987 10.1933 110.798 9.50033 110.434 9.043C110.07 8.581 109.529 8.35 108.81 8.35C108.04 8.35 107.455 8.59733 107.053 9.092C106.652 9.58667 106.451 10.296 106.451 11.22C106.451 12.1113 106.652 12.802 107.053 13.292C107.455 13.782 108.026 14.027 108.768 14.027C109.268 14.027 109.702 13.9127 110.07 13.684C110.439 13.4553 110.728 13.1263 110.938 12.697L112.135 13.11C111.841 13.7773 111.398 14.2953 110.805 14.664C110.217 15.028 109.557 15.21 108.824 15.21ZM106.031 11.57V10.569H111.617V11.57H106.031ZM118.041 15C117.593 15.0887 117.15 15.1237 116.711 15.105C116.277 15.091 115.89 15.0047 115.549 14.846C115.208 14.6827 114.949 14.4307 114.772 14.09C114.623 13.7913 114.541 13.4903 114.527 13.187C114.518 12.879 114.513 12.5313 114.513 12.144V5.34H115.759V12.088C115.759 12.396 115.761 12.6597 115.766 12.879C115.775 13.0983 115.824 13.2873 115.913 13.446C116.081 13.7447 116.347 13.9197 116.711 13.971C117.08 14.0223 117.523 14.0083 118.041 13.929V15ZM112.98 8.469V7.44H118.041V8.469H112.98ZM122.378 15V4.92H128.258V6.166H123.624V9.337H127.418V10.583H123.624V15H122.378ZM132.586 15.21C131.844 15.21 131.195 15.0467 130.64 14.72C130.089 14.3887 129.66 13.929 129.352 13.341C129.044 12.7483 128.89 12.0577 128.89 11.269C128.89 10.443 129.042 9.729 129.345 9.127C129.648 8.52033 130.071 8.05367 130.612 7.727C131.158 7.39567 131.797 7.23 132.53 7.23C133.291 7.23 133.937 7.405 134.469 7.755C135.006 8.105 135.407 8.60433 135.673 9.253C135.944 9.90167 136.06 10.674 136.023 11.57H134.763V11.122C134.749 10.1933 134.56 9.50033 134.196 9.043C133.832 8.581 133.291 8.35 132.572 8.35C131.802 8.35 131.216 8.59733 130.815 9.092C130.414 9.58667 130.213 10.296 130.213 11.22C130.213 12.1113 130.414 12.802 130.815 13.292C131.216 13.782 131.788 14.027 132.53 14.027C133.029 14.027 133.463 13.9127 133.832 13.684C134.201 13.4553 134.49 13.1263 134.7 12.697L135.897 13.11C135.603 13.7773 135.16 14.2953 134.567 14.664C133.979 15.028 133.319 15.21 132.586 15.21ZM129.793 11.57V10.569H135.379V11.57H129.793ZM140.858 15.21C140.116 15.21 139.467 15.0467 138.912 14.72C138.361 14.3887 137.932 13.929 137.624 13.341C137.316 12.7483 137.162 12.0577 137.162 11.269C137.162 10.443 137.313 9.729 137.617 9.127C137.92 8.52033 138.342 8.05367 138.884 7.727C139.43 7.39567 140.069 7.23 140.802 7.23C141.562 7.23 142.209 7.405 142.741 7.755C143.277 8.105 143.679 8.60433 143.945 9.253C144.215 9.90167 144.332 10.674 144.295 11.57H143.035V11.122C143.021 10.1933 142.832 9.50033 142.468 9.043C142.104 8.581 141.562 8.35 140.844 8.35C140.074 8.35 139.488 8.59733 139.087 9.092C138.685 9.58667 138.485 10.296 138.485 11.22C138.485 12.1113 138.685 12.802 139.087 13.292C139.488 13.782 140.06 14.027 140.802 14.027C141.301 14.027 141.735 13.9127 142.104 13.684C142.472 13.4553 142.762 13.1263 142.972 12.697L144.169 13.11C143.875 13.7773 143.431 14.2953 142.839 14.664C142.251 15.028 141.59 15.21 140.858 15.21ZM138.065 11.57V10.569H143.651V11.57H138.065ZM147.778 12.256C147.778 11.906 147.799 11.5887 147.841 11.304C147.888 11.0147 147.986 10.7347 148.135 10.464C148.27 10.2027 148.431 9.99033 148.618 9.827C148.805 9.659 149.005 9.498 149.22 9.344C149.435 9.19 149.647 9.001 149.857 8.777C150.044 8.567 150.167 8.357 150.228 8.147C150.289 7.93233 150.319 7.706 150.319 7.468C150.319 7.258 150.293 7.069 150.242 6.901C150.195 6.72833 150.116 6.58133 150.004 6.46C149.836 6.25 149.626 6.10533 149.374 6.026C149.127 5.94667 148.868 5.907 148.597 5.907C148.34 5.907 148.098 5.942 147.869 6.012C147.645 6.082 147.458 6.19167 147.309 6.341C147.16 6.47633 147.05 6.642 146.98 6.838C146.91 7.02933 146.875 7.237 146.875 7.461H145.573C145.601 7.055 145.697 6.67 145.86 6.306C146.028 5.93733 146.259 5.634 146.553 5.396C146.828 5.16267 147.143 4.99233 147.498 4.885C147.853 4.773 148.21 4.717 148.569 4.717C149.045 4.717 149.495 4.78933 149.92 4.934C150.349 5.07867 150.706 5.319 150.991 5.655C151.21 5.893 151.374 6.166 151.481 6.474C151.588 6.782 151.642 7.10633 151.642 7.447C151.642 7.86233 151.558 8.24967 151.39 8.609C151.227 8.96833 151.005 9.29267 150.725 9.582C150.571 9.75 150.403 9.904 150.221 10.044C150.044 10.184 149.873 10.324 149.71 10.464C149.551 10.604 149.425 10.758 149.332 10.926C149.211 11.1453 149.141 11.3483 149.122 11.535C149.108 11.717 149.101 11.9573 149.101 12.256H147.778ZM147.785 15V13.467H149.101V15H147.785Z" fill="#565656"/>
</svg>
