<svg xmlns="http://www.w3.org/2000/svg" width="12" height="16" viewBox="0 0 12 16" fill="none">
  <ellipse opacity="0.3" cx="6" cy="13.8328" rx="4" ry="1.25" fill="#2B2D33"/>
  <path fill-rule="evenodd" clip-rule="evenodd" d="M0.332764 6.45997C0.332764 3.39339 2.89535 0.914795 5.99506 0.914795C9.10351 0.914795 11.6661 3.39339 11.6661 6.45997C11.6661 9.70407 9.28466 11.7529 6.90134 13.5674C6.36909 13.9726 5.62979 13.9735 5.09707 13.5689C2.71164 11.7571 0.332764 9.70249 0.332764 6.45997ZM4.12886 6.63219C4.12886 7.65949 4.96714 8.46747 5.995 8.46747C7.02353 8.46747 7.86989 7.65949 7.86989 6.63219C7.86989 5.61288 7.02353 4.76558 5.995 4.76558C4.96714 4.76558 4.12886 5.61288 4.12886 6.63219Z" fill="#2B2D33"/>
</svg>
