<svg xmlns="http://www.w3.org/2000/svg" width="14" height="16" viewBox="0 0 14 16" fill="none">
  <path d="M1.01862 15.1385L3.35061 11.8071" stroke="#2B2D33" stroke-width="1.33333" stroke-linecap="round"/>
  <path d="M12.9814 15.1385L10.6495 11.8071" stroke="#2B2D33" stroke-width="1.16667" stroke-linecap="round"/>
  <path fill-rule="evenodd" clip-rule="evenodd" d="M2.28125 0.400024C1.17668 0.400024 0.28125 1.29545 0.28125 2.40002V10.9432C0.28125 12.0478 1.17668 12.9432 2.28125 12.9432H11.7189C12.8234 12.9432 13.7189 12.0478 13.7189 10.9432V2.40002C13.7189 1.29546 12.8234 0.400024 11.7189 0.400024H2.28125ZM2.70175 2.03304C2.33356 2.03304 2.03509 2.33152 2.03509 2.69971V6.73231C2.03509 7.1005 2.33357 7.39898 2.70176 7.39898H11.2973C11.6655 7.39898 11.9639 7.1005 11.9639 6.73231V2.69971C11.9639 2.33152 11.6654 2.03304 11.2973 2.03304H2.70175ZM3.94344 11.1014C4.49541 11.1014 4.94287 10.654 4.94287 10.102C4.94287 9.55004 4.49541 9.10258 3.94344 9.10258C3.39147 9.10258 2.94402 9.55004 2.94402 10.102C2.94402 10.654 3.39147 11.1014 3.94344 11.1014ZM10.9394 10.102C10.9394 10.654 10.492 11.1014 9.94 11.1014C9.38803 11.1014 8.94057 10.654 8.94057 10.102C8.94057 9.55004 9.38803 9.10258 9.94 9.10258C10.492 9.10258 10.9394 9.55004 10.9394 10.102Z" fill="#2B2D33"/>
  <path d="M1.61139 14.3756H12.2719" stroke="#2B2D33" stroke-width="1.16667" stroke-linecap="round"/>
</svg>
