<svg xmlns="http://www.w3.org/2000/svg" width="28" height="28" viewBox="0 0 28 28" fill="none">
  <path d="M21.7977 3.90137H6.51998C5.91729 3.90137 5.42871 4.35348 5.42871 4.91118V23.0878C5.42871 23.6455 5.91729 24.0976 6.51998 24.0976H21.7977C22.4004 24.0976 22.889 23.6455 22.889 23.0878V4.91118C22.889 4.35348 22.4004 3.90137 21.7977 3.90137Z" stroke="#2B2D33" stroke-width="1.3125" stroke-linecap="round"/>
  <path d="M22.4432 9.34277L5.87451 9.34277" stroke="#2B2D33" stroke-width="1.3125" stroke-linecap="round"/>
  <path d="M8.62421 7.73572C9.2397 7.73572 9.73865 7.23677 9.73865 6.62128C9.73865 6.00579 9.2397 5.50684 8.62421 5.50684C8.00872 5.50684 7.50977 6.00579 7.50977 6.62128C7.50977 7.23677 8.00872 7.73572 8.62421 7.73572Z" fill="#333333"/>
  <path d="M12.6032 7.73572C13.2187 7.73572 13.7177 7.23677 13.7177 6.62128C13.7177 6.00579 13.2187 5.50684 12.6032 5.50684C11.9877 5.50684 11.4888 6.00579 11.4888 6.62128C11.4888 7.23677 11.9877 7.73572 12.6032 7.73572Z" fill="#333333"/>
  <path d="M14.1584 21.2974C16.7008 21.2974 18.7617 19.2364 18.7617 16.6941C18.7617 14.1518 16.7008 12.0908 14.1584 12.0908C11.6161 12.0908 9.55518 14.1518 9.55518 16.6941C9.55518 19.2364 11.6161 21.2974 14.1584 21.2974Z" stroke="#2B2D33" stroke-width="1.3125" stroke-linecap="round"/>
  <path d="M9.75708 16.8686C14.6773 18.3044 13.464 15.0682 18.7618 16.8686" stroke="#2B2D33" stroke-width="1.3125" stroke-linecap="round" stroke-linejoin="round"/>
</svg>
