<svg width="28" height="28" viewBox="0 0 28 28" fill="none" xmlns="http://www.w3.org/2000/svg">
  <rect x="2.625" y="5.25" width="23.625" height="17.5" rx="1.75" stroke="#2B2D33" stroke-width="1.3125" stroke-linecap="round"/>
  <path d="M18.8125 8.3125H6.125C5.88338 8.3125 5.6875 8.50838 5.6875 8.75V19.25C5.6875 19.4916 5.88338 19.6875 6.125 19.6875H18.8125C19.0541 19.6875 19.25 19.4916 19.25 19.25V8.75C19.25 8.50838 19.0541 8.3125 18.8125 8.3125Z" stroke="#2B2D33" stroke-width="1.3125" stroke-linecap="round" stroke-linejoin="round"/>
  <path d="M22.75 10.5H23.625" stroke="#2B2D33" stroke-width="1.3125" stroke-linecap="round" stroke-linejoin="round"/>
  <path d="M22.75 14H23.625" stroke="#2B2D33" stroke-width="1.3125" stroke-linecap="round" stroke-linejoin="round"/>
  <path d="M22.75 17.5H23.625" stroke="#2B2D33" stroke-width="1.3125" stroke-linecap="round" stroke-linejoin="round"/>
  <path d="M9.73569 12.6866C8.97172 14.0873 10.4996 14.4375 9.73569 16.1884" stroke="#2B2D33" stroke-width="1.3125" stroke-linecap="round" stroke-linejoin="round"/>
  <path d="M12.4688 12.6866C11.7049 14.0873 13.2328 14.4375 12.4688 16.1884" stroke="#2B2D33" stroke-width="1.3125" stroke-linecap="round" stroke-linejoin="round"/>
  <path d="M15.2018 12.6866C14.4378 14.0873 15.9657 14.4375 15.2018 16.1884" stroke="#2B2D33" stroke-width="1.3125" stroke-linecap="round" stroke-linejoin="round"/>
</svg>
