<svg xmlns="http://www.w3.org/2000/svg" width="28" height="28" viewBox="0 0 28 28" fill="none">
  <rect x="3.9375" y="3.9375" width="20.125" height="20.125" rx="1.75" stroke="#2B2D33" stroke-width="1.3125" stroke-linecap="round" stroke-linejoin="round"/>
  <path d="M24.0625 9.42676H3.9375" stroke="#2B2D33" stroke-width="1.3125" stroke-linecap="round" stroke-linejoin="round"/>
  <path d="M16.7445 6.68164H11.2559" stroke="#2B2D33" stroke-width="1.3125" stroke-linecap="round" stroke-linejoin="round"/>
  <path d="M13.8087 20.1843C13.8748 20.1194 13.9386 20.0521 14 19.9826C14.6031 19.2993 14.969 18.4018 14.969 17.4188C14.969 15.2782 13.2337 13.5428 11.093 13.5428C8.95237 13.5428 7.21704 15.2782 7.21704 17.4188C7.21704 18.4018 7.58297 19.2993 8.18603 19.9826C8.24739 20.0521 8.31119 20.1194 8.37732 20.1843" stroke="#2B2D33" stroke-width="1.3125" stroke-linecap="round" stroke-linejoin="round"/>
  <path d="M14 14.855C14.7102 14.0504 15.7493 13.5428 16.907 13.5428C19.0476 13.5428 20.783 15.2782 20.783 17.4188C20.783 18.4742 20.3611 19.4311 19.6768 20.1301" stroke="#2B2D33" stroke-width="1.3125" stroke-linecap="round" stroke-linejoin="round"/>
  <path d="M6.68164 20.4023H21.318" stroke="#2B2D33" stroke-width="1.3125" stroke-linecap="round" stroke-linejoin="round"/>
</svg>
